<svg id="Capa_1" enable-background="new 0 0 509.47 509.47" height="512" viewBox="0 0 509.47 509.47" width="512" xmlns="http://www.w3.org/2000/svg"><path id="XMLID_744_" d="m291.142 322.596v-52.057h55.881l70.896 58.29 19.053-23.173-79.199-65.117h-66.63v-53.951h67.469l70.324-70.324-21.213-21.213-61.538 61.537h-55.042v-60.395l42.731-82.336-26.628-13.82-32.457 62.539c-5.699-3.749-12.511-5.939-19.829-5.939-7.391 0-14.268 2.232-20.001 6.05l-32.754-62.687-26.589 13.894 43.163 82.606v60.088h-55.493l-61.538-61.537-21.213 21.213 70.324 70.324h67.92v53.951h-67.081l-79.199 65.117 19.053 23.173 70.896-58.29h56.332v52.057h-67.718l-78.512 74.972 20.719 21.696 69.815-66.668h55.695v120.692c0 19.951 16.231 36.182 36.182 36.182s36.182-16.231 36.182-36.182v-120.692h55.244l69.815 66.668 20.719-21.696-78.511-74.972zm-30 150.692c0 3.409-2.773 6.182-6.182 6.182s-6.182-2.773-6.182-6.182v-380.47c0-3.409 2.773-6.182 6.182-6.182s6.182 2.773 6.182 6.182z"/></svg>